<?xml version="1.0" encoding="utf-8"?>
<!-- Generator: Adobe Illustrator 24.1.1, SVG Export Plug-In . SVG Version: 6.00 Build 0)  -->
<svg version="1.1" id="edit-user-7" xmlns="http://www.w3.org/2000/svg" xmlns:xlink="http://www.w3.org/1999/xlink" x="0px"
	 y="0px" viewBox="0 0 800 800" style="enable-background:new 0 0 800 800;" xml:space="preserve">
<style type="text/css">
	.st0{fill:none;stroke:#231F20;stroke-width:66.6667;stroke-linecap:round;stroke-linejoin:round;stroke-miterlimit:133.3333;}
	.st1{fill:none;stroke:#000000;stroke-width:66.6667;stroke-linecap:round;stroke-linejoin:round;stroke-miterlimit:133.3333;}
</style>
<path id="secondary" class="st0" d="M690.3,536.3L526.7,700h-93.3v-93.3L597,443c13-12.7,33.7-12.7,46.7,0l46.7,46.7
	C703,502.6,703,523.4,690.3,536.3z"/>
<path id="primary" class="st1" d="M300,700H133.3c-18.4,0-33.3-14.9-33.3-33.3c0.1-77.1,38.2-149.3,102-192.7
	c15.7-9.6,20.6-30.1,11-45.8c-0.5-0.9-1.1-1.7-1.7-2.5c-29-35.5-44.8-79.9-44.7-125.7c-0.4-110.5,88.8-200.4,199.2-200.8
	C464.1,98.8,548,169.8,564,266.7c2.4,14,3.3,28.2,2.7,42.3"/>
</svg>
