<?xml version="1.0" encoding="utf-8"?>
<!-- Generator: Adobe Illustrator 24.1.1, SVG Export Plug-In . SVG Version: 6.00 Build 0)  -->
<svg version="1.1" id="Layer_1" xmlns="http://www.w3.org/2000/svg" xmlns:xlink="http://www.w3.org/1999/xlink" x="0px" y="0px"
	 viewBox="0 0 800 800" style="enable-background:new 0 0 800 800;" xml:space="preserve">
<style type="text/css">
	.st0{fill:none;stroke:#000000;stroke-width:50;stroke-linecap:round;stroke-linejoin:round;stroke-miterlimit:133.3333;}
</style>
<path class="st0" d="M233.3,533.3V378.7c0-17,3.3-33.3,9.5-48.5 M566.7,466.7v-39.5 M307.4,257.8c26.5-15.5,58.3-24.5,92.6-24.5
	c76,0,140.1,44.4,160.2,105"/>
<path class="st0" d="M333.3,566.7v-72.5 M466.7,566.7V395.1c0-34.1-29.8-61.8-66.7-61.8s-66.7,27.7-66.7,61.8v26.5"/>
<path class="st0" d="M400,733.3C215.9,733.3,66.7,584.1,66.7,400C66.7,215.9,215.9,66.7,400,66.7c184.1,0,333.3,149.2,333.3,333.3
	c0,34.8-5.3,68.4-15.3,100"/>
<path class="st0" d="M641.4,754.8l0-100 M641.4,654.8l0-100 M641.4,654.8h-100 M641.4,654.8l100,0"/>
</svg>
